<svg id="Layer_1" data-name="Layer 1" xmlns="http://www.w3.org/2000/svg" viewBox="0 0 34.02 34.02"><defs><style>.cls-1{fill:#7c7c7c;}.cls-2{fill:#fff;}</style></defs><title>facebook</title><path class="cls-1" d="M139,73.81a17,17,0,1,0-17-17,17,17,0,0,0,17,17" transform="translate(-121.95 -39.79)"/><path class="cls-2" d="M134.86,53.92h1.76V52.21a4.57,4.57,0,0,1,.57-2.64,3.13,3.13,0,0,1,2.73-1.28,11.05,11.05,0,0,1,3.15.32l-0.44,2.61a5.94,5.94,0,0,0-1.42-.21,1.06,1.06,0,0,0-1.3.93v2h2.8l-0.2,2.54h-2.61V65.3h-3.3V56.47h-1.76V53.92Z" transform="translate(-121.95 -39.79)"/></svg>