<?xml version="1.0" encoding="UTF-8" standalone="no"?>
<svg width="46px" height="44px" viewBox="0 0 46 44" version="1.1" xmlns="http://www.w3.org/2000/svg" xmlns:xlink="http://www.w3.org/1999/xlink">
    <!-- Generator: Sketch 3.7.2 (28276) - http://www.bohemiancoding.com/sketch -->
    <title>Shape</title>
    <desc>Created with Sketch.</desc>
    <defs></defs>
    <g id="Symbols" stroke="none" stroke-width="1" fill="none" fill-rule="evenodd">
        <g id="Header" transform="translate(-24.000000, -20.000000)" fill="#FFFFFF">
            <path d="M31.2563133,63.5819333 C28.3583133,63.5819333 25.7915133,62.3031333 24.6318022,59.9729778 C23.7261133,58.1529111 23.7961355,56.0159556 24.8290911,53.9556667 C25.7884466,52.0410444 27.4894244,50.4034444 29.6187133,49.3444222 C31.3984022,48.4591778 33.3068911,48.0554 35.1417799,48.1755111 L34.9398911,51.2350222 C33.6667133,51.1522222 32.2616688,51.4548 30.9844022,52.0896 C29.4464688,52.8547333 28.2341133,54.0057556 27.5706911,55.3295333 C26.9803577,56.5076444 26.9113577,57.6714444 27.3769799,58.6067778 C28.3971577,60.6578667 31.7745799,61.1393333 34.7512911,59.6591556 C36.7354244,58.6716889 38.1931133,57.0044444 38.5718466,55.2958 L38.6648688,54.5204444 L38.6648688,29.8521778 L69.2262466,20 L69.2175577,54.4836444 C69.0647355,57.4772222 66.8649133,60.4575111 63.6132244,62.0756889 C61.4839355,63.1357333 59.1517355,63.5052667 57.0459577,63.1158 C54.7791799,62.6972 53.0322022,61.4649111 52.1270244,59.6448444 C51.2213355,57.8247778 51.2913577,55.6883333 52.3243133,53.6275333 C53.2836688,51.7134222 54.9846466,50.0758222 57.1134244,49.0162889 C58.6784466,48.2373556 60.3686911,47.8264222 62.0062911,47.8264222 C62.0323577,47.8264222 62.0584244,47.8269333 62.0844911,47.8269333 L62.0594466,50.8936 C60.8844022,50.8915556 59.6398466,51.1839111 58.4796244,51.7614667 C56.9416911,52.5271111 55.7288244,53.6776222 55.0654022,55.0019111 C54.4750688,56.1800222 54.4060688,57.3433111 54.8716911,58.2786444 C55.3373133,59.2144889 56.3074022,59.8615556 57.6025577,60.1002444 C59.0592244,60.3685778 60.7080688,60.0961556 62.2460022,59.3305111 C64.4764911,58.2203778 66.0425355,56.225 66.1529355,54.3568889 L66.1590688,53.7220889 L66.1590688,24.2105333 L41.7310244,32.0857333 L41.7202911,54.7949111 L41.5868911,55.8580222 C41.0348911,58.5275556 38.9904466,60.9747556 36.1180022,62.4043333 C34.5151577,63.2016667 32.8366688,63.5819333 31.2563133,63.5819333 L31.2563133,63.5819333 Z" id="Shape"></path>
        </g>
    </g>
</svg>