<svg id="Layer_1" data-name="Layer 1" xmlns="http://www.w3.org/2000/svg" viewBox="0 0 34.02 34.02"><defs><style>.cls-1{fill:#7c7c7c;}.cls-2{fill:#fff;}</style></defs><title>linkedin</title><path class="cls-1" d="M212.51,72a17,17,0,1,0-17-17,17,17,0,0,0,17,17" transform="translate(-195.5 -37.98)"/><path class="cls-2" d="M207.75,62.11h-3.32V51.5h3.32V62.11ZM206,50.17h0a1.84,1.84,0,0,1-2-1.84A2,2,0,1,1,206,50.17Zm15,11.94h-3.76V56.62c0-1.44-.59-2.42-1.88-2.42a1.9,1.9,0,0,0-1.79,1.3,2.44,2.44,0,0,0-.08.87v5.74h-3.72s0-9.73,0-10.61h3.72v1.66a3.4,3.4,0,0,1,3.31-1.77c2.36,0,4.21,1.53,4.21,4.81v5.9Z" transform="translate(-195.5 -37.98)"/></svg>