<?xml version="1.0" encoding="UTF-8" standalone="no"?>
<svg width="92px" height="38px" viewBox="0 0 92 38" version="1.1" xmlns="http://www.w3.org/2000/svg" xmlns:xlink="http://www.w3.org/1999/xlink" xmlns:sketch="http://www.bohemiancoding.com/sketch/ns">
    <!-- Generator: Sketch 3.3.3 (12072) - http://www.bohemiancoding.com/sketch -->
    <title>Logo</title>
    <desc>Created with Sketch.</desc>
    <defs></defs>
    <g id="Page-1" stroke="none" stroke-width="1" fill="none" fill-rule="evenodd" sketch:type="MSPage">
        <g id="1_Homepage" sketch:type="MSArtboardGroup" transform="translate(-136.000000, -50.000000)" fill="#000000">
            <g id="0-Nav" sketch:type="MSLayerGroup" transform="translate(136.000000, 50.000000)">
                <path d="M68.73136,37.9277299 L68.73136,7.87179301 L74.600224,7.87179301 L74.600224,9.4837922 C75.7896,8.53310693 77.781216,7.5058015 80.828992,7.5058015 C87.5104,7.5058015 92,12.1580594 92,19.0821427 C92,25.9690317 87.307264,30.7797372 80.587584,30.7797372 C77.87248,30.7797372 75.924288,29.7680534 74.881376,29.0472286 L74.881376,37.9277299 L68.73136,37.9277299 L68.73136,37.9277299 Z M80.26448,13.1117202 C76.9488,13.1117202 74.720192,15.5434809 74.720192,19.1639701 C74.720192,22.7026319 77.017248,25.1745624 80.30496,25.1745624 C83.621376,25.1745624 85.849984,22.7591672 85.849984,19.1639701 C85.849984,15.6007601 83.553664,13.1117202 80.26448,13.1117202 Z M50.09952,37.9277299 L56.440896,37.9277299 L67.264512,7.87179301 L60.901792,7.87179301 L56.287072,20.6688498 L51.539872,7.87179301 L44.917344,7.87179301 L53.266528,29.1335193 L50.09952,37.9277299 Z M16.539392,9.81556499 C16.487872,9.83044269 16.459168,9.80366283 16.451072,9.76274914 L16.40176,9.50536487 C16.039648,7.62035981 14.514656,5.68253891 11.363104,5.68253891 C9.281696,5.68253891 7.17232,6.79687892 7.17232,8.93257328 C7.17232,10.5386214 8.32784,11.513111 10.117792,11.895468 C11.267424,12.1409501 13.546816,12.601415 14.697184,12.8431777 C19.751296,13.9061896 22.5032,16.5886396 22.56944,21.2416414 C22.605504,23.7351445 21.680352,26.0411886 19.964736,27.7342713 C17.992992,29.679531 15.2536,30.7797372 12.010048,30.7797372 C8.455168,30.7797372 5.427264,29.7985527 3.25312,27.7930382 C1.480832,26.1587225 0.29808,23.8563978 0.00736,21.477453 L0,21.4201738 L5.736384,19.5693875 C5.78864,19.5559976 5.819552,19.5864969 5.823968,19.6296422 L5.853408,19.9257085 C6.102912,22.4422721 7.840608,25.054053 11.968832,25.054053 C14.666272,25.054053 16.323008,23.5811603 16.323008,21.7013624 C16.323008,20.0953143 15.285984,18.8753426 13.201632,18.4304993 L8.87248,17.4813018 C3.859584,16.5254093 1.006112,14.0341379 1.006112,9.66306853 C1.006112,4.4179341 5.521472,0 11.240928,0 C19.74688,0 21.755424,5.91537497 22.132256,8.01164342 L16.539392,9.81556499 Z M35.913856,7.5058015 C34.023072,7.5058015 32.24416,8.26605215 30.839136,9.4837922 L30.839136,0.357808773 L24.49776,0.357808773 L24.49776,30.4137457 L30.793504,30.4137457 L30.793504,17.5794946 C30.793504,14.7616576 32.687968,13.1117202 34.950432,13.1117202 C37.212896,13.1117202 39.016096,14.7616576 39.016096,17.5794946 L39.016096,30.4137457 L45.357472,30.4137457 L45.357472,18.5301799 C45.357472,10.9224661 41.505248,7.5058015 35.913856,7.5058015 Z" id="Logo" sketch:type="MSShapeGroup"></path>
            </g>
        </g>
    </g>
</svg>