<svg id="Layer_1" data-name="Layer 1" xmlns="http://www.w3.org/2000/svg" viewBox="0 0 34.02 34.02"><defs><style>.cls-1{fill:#7c7c7c;}.cls-2{fill:#fff;}</style></defs><title>Untitled-2</title><path class="cls-1" d="M70.93,73.81a17,17,0,1,0-17-17,17,17,0,0,0,17,17" transform="translate(-53.92 -39.79)"/><path class="cls-2" d="M79.46,52.35a7,7,0,0,1-2,.55A3.5,3.5,0,0,0,79,51a7,7,0,0,1-2.22.85,3.5,3.5,0,0,0-6,3.19,9.92,9.92,0,0,1-7.2-3.65A3.5,3.5,0,0,0,64.69,56a3.5,3.5,0,0,1-1.58-.44v0A3.5,3.5,0,0,0,65.91,59a3.41,3.41,0,0,1-.92.12,3.46,3.46,0,0,1-.66-0.06,3.5,3.5,0,0,0,3.26,2.43A7.07,7.07,0,0,1,62.43,63a9.94,9.94,0,0,0,15.3-8.37c0-.15,0-0.3,0-0.45a7.09,7.09,0,0,0,1.74-1.81" transform="translate(-53.92 -39.79)"/></svg>